<svg width="12" height="12" viewBox="0 0 12 12" fill="none" xmlns="http://www.w3.org/2000/svg">
<g clip-path="url(#clip0_601_1750)">
<path d="M9.50014 4.35488L6.83364 2.28088C6.59963 2.09884 6.31161 2 6.01514 2C5.71866 2 5.43064 2.09884 5.19664 2.28088L2.52964 4.35488C2.36936 4.47953 2.23968 4.63915 2.15051 4.82156C2.06135 5.00397 2.01504 5.20435 2.01514 5.40738V9.00738C2.01514 9.2726 2.12049 9.52696 2.30803 9.71449C2.49557 9.90203 2.74992 10.0074 3.01514 10.0074H9.01514C9.28035 10.0074 9.53471 9.90203 9.72224 9.71449C9.90978 9.52696 10.0151 9.2726 10.0151 9.00738V5.40738C10.0151 4.99588 9.82514 4.60738 9.50014 4.35488Z" fill="#7065F0" stroke="#7065F0" stroke-width="3" stroke-linecap="round" stroke-linejoin="round"/>
<path d="M8 7.5C6.895 8.1665 5.104 8.1665 4 7.5" stroke="#F9FAFB" stroke-width="2" stroke-linecap="round" stroke-linejoin="round"/>
</g>
<defs>
<clipPath id="clip0_601_1750">
<rect width="12" height="12" fill="white"/>
</clipPath>
</defs>
</svg>
