<svg width="84" height="20" viewBox="0 0 84 20" fill="none" xmlns="http://www.w3.org/2000/svg">
<g clip-path="url(#clip0_601_1708)">
<path d="M21.8209 7.0874L30.205 7.0874L30.205 8.62168L26.9039 8.62168L26.9039 17.2707L25.0945 17.2707L25.0945 8.62168L21.8071 8.62168L21.8209 7.0874ZM29.8459 9.89799L31.3929 9.89799L31.3929 11.3237L31.4205 11.3237C31.4757 11.12 31.5724 10.9299 31.7105 10.7398C31.8487 10.5497 32.0144 10.3732 32.2216 10.2239C32.415 10.0609 32.636 9.93872 32.8846 9.84368C33.1194 9.74863 33.368 9.69432 33.6166 9.69432C33.81 9.69432 33.9481 9.7079 34.0172 9.7079C34.0863 9.72148 34.1691 9.73506 34.2382 9.73506L34.2382 11.2965C34.1277 11.2693 34.0034 11.2558 33.8791 11.2422C33.7548 11.2286 33.6443 11.215 33.52 11.215C33.2437 11.215 32.9813 11.2693 32.7327 11.378C32.484 11.4866 32.2769 11.6495 32.0835 11.8532C31.9039 12.0704 31.752 12.3284 31.6415 12.6407C31.531 12.953 31.4757 13.3196 31.4757 13.7269L31.4757 17.23L29.8183 17.23L29.8459 9.89799ZM41.835 17.2707L40.2051 17.2707L40.2051 16.2388L40.1775 16.2388C39.9703 16.619 39.6664 16.9041 39.2659 17.1349C38.8653 17.3657 38.4509 17.4744 38.0366 17.4744C37.0559 17.4744 36.3377 17.2435 35.8957 16.7547C35.4537 16.2795 35.2327 15.5463 35.2327 14.5823L35.2327 9.89799L36.8902 9.89799L36.8902 14.4194C36.8902 15.0711 37.0145 15.5327 37.2769 15.7907C37.5255 16.0623 37.8846 16.1981 38.3404 16.1981C38.6858 16.1981 38.9758 16.1437 39.2106 16.0351C39.4454 15.9265 39.6388 15.7907 39.7769 15.6142C39.9289 15.4377 40.0256 15.2205 40.0946 14.9761C40.1637 14.7317 40.1913 14.4601 40.1913 14.175L40.1913 9.89799L41.8488 9.89799L41.8488 17.2707L41.835 17.2707ZM44.6527 14.9082C44.7079 15.3834 44.8875 15.7093 45.2052 15.9129C45.5228 16.103 45.9096 16.1981 46.3516 16.1981C46.5035 16.1981 46.6831 16.1845 46.8765 16.1573C47.0698 16.1302 47.2632 16.0894 47.4289 16.0215C47.6085 15.9537 47.7466 15.8586 47.8571 15.7228C47.9676 15.5871 48.0229 15.4241 48.0091 15.2205C47.9952 15.0168 47.9262 14.8403 47.7742 14.7045C47.6223 14.5687 47.4428 14.4737 47.2218 14.3786C47.0008 14.2972 46.7383 14.2293 46.4483 14.175C46.1582 14.1207 45.8682 14.0528 45.5643 13.9849C45.2604 13.917 44.9565 13.8355 44.6665 13.7405C44.3764 13.6454 44.1278 13.5232 43.893 13.3467C43.672 13.1838 43.4786 12.9801 43.3543 12.7222C43.2162 12.4642 43.1471 12.1655 43.1471 11.7853C43.1471 11.378 43.2438 11.0521 43.451 10.7805C43.6444 10.509 43.9068 10.2917 44.2107 10.1288C44.5145 9.96588 44.8599 9.84368 45.2328 9.77579C45.6057 9.7079 45.9648 9.68074 46.2963 9.68074C46.6831 9.68074 47.056 9.72148 47.4013 9.80294C47.7466 9.88441 48.0781 10.0066 48.3544 10.1967C48.6444 10.3732 48.8792 10.6176 49.0588 10.9027C49.2522 11.1879 49.3627 11.5409 49.4179 11.9482L47.6914 11.9482C47.6085 11.5545 47.4289 11.2965 47.1527 11.1607C46.8626 11.0249 46.545 10.9571 46.172 10.9571C46.0615 10.9571 45.9096 10.9706 45.7577 10.9842C45.5919 11.0114 45.4538 11.0385 45.3018 11.0928C45.1637 11.1471 45.0394 11.2286 44.9427 11.3236C44.846 11.4187 44.7908 11.5545 44.7908 11.7174C44.7908 11.9211 44.8599 12.0704 44.998 12.1926C45.1361 12.3148 45.3157 12.4099 45.5505 12.5049C45.7715 12.5864 46.0339 12.6543 46.324 12.7086C46.614 12.7629 46.9179 12.8308 47.2218 12.8987C47.5256 12.9666 47.8157 13.048 48.1057 13.1431C48.3958 13.2381 48.6582 13.3603 48.8792 13.5368C49.1002 13.6998 49.2936 13.9034 49.4317 14.1478C49.5698 14.3922 49.6389 14.7045 49.6389 15.0575C49.6389 15.492 49.5422 15.8586 49.335 16.1709C49.1279 16.4696 48.8654 16.7276 48.5477 16.9177C48.2301 17.1078 47.8571 17.2435 47.4704 17.3386C47.0698 17.4201 46.6831 17.4744 46.2963 17.4744C45.8267 17.4744 45.3847 17.4201 44.9842 17.3114C44.5836 17.2028 44.2245 17.0399 43.9344 16.8362C43.6444 16.619 43.4096 16.361 43.2438 16.0351C43.0781 15.7228 42.9814 15.3427 42.9676 14.8946L44.6389 14.8946L44.6389 14.9082L44.6527 14.9082ZM50.1085 9.89799L51.3654 9.89799L51.3654 7.67124L53.0229 7.67124L53.0229 9.88441L54.5146 9.88441L54.5146 11.0928L53.0229 11.0928L53.0229 15.0304C53.0229 15.2069 53.0367 15.3427 53.0505 15.4784C53.0644 15.6006 53.1058 15.7093 53.1472 15.7907C53.2025 15.8722 53.2854 15.9401 53.382 15.9808C53.4925 16.0215 53.6307 16.0487 53.824 16.0487C53.9345 16.0487 54.0588 16.0487 54.1693 16.0351C54.2798 16.0215 54.4041 16.008 54.5147 15.9808L54.5147 17.2435C54.3351 17.2707 54.1555 17.2843 53.976 17.2979C53.7964 17.325 53.6307 17.325 53.4373 17.325C52.9953 17.325 52.65 17.2843 52.3876 17.2028C52.1251 17.1213 51.9179 16.9991 51.766 16.8498C51.6141 16.6869 51.5174 16.4968 51.4621 16.2659C51.4069 16.0351 51.3793 15.75 51.3654 15.4513L51.3654 11.1064L50.1085 11.1064L50.1085 9.87083L50.1085 9.89799ZM55.6749 9.89799L57.2357 9.89799L57.2357 10.9027L57.2633 10.9027C57.4981 10.4682 57.8158 10.1695 58.2302 9.97945C58.6445 9.78936 59.0865 9.69432 59.5838 9.69432C60.1777 9.69432 60.6887 9.78936 61.1307 10.0066C61.5727 10.2103 61.9319 10.4818 62.2219 10.8484C62.512 11.2014 62.733 11.6224 62.8711 12.0976C63.0092 12.5728 63.0921 13.0888 63.0921 13.6183C63.0921 14.1207 63.023 14.5959 62.8987 15.0575C62.7606 15.5192 62.5672 15.9401 62.3048 16.2931C62.0424 16.6461 61.7109 16.9313 61.2965 17.1485C60.8821 17.3657 60.4125 17.4744 59.86 17.4744C59.6252 17.4744 59.3766 17.4472 59.1418 17.4065C58.907 17.3657 58.6722 17.2979 58.4512 17.2028C58.2302 17.1078 58.023 16.9856 57.8434 16.8362C57.65 16.6869 57.4981 16.5103 57.3738 16.3203L57.3462 16.3203L57.3462 19.9998L55.6887 19.9998L55.6887 9.89799L55.6749 9.89799ZM61.4622 13.5911C61.4622 13.2653 61.4208 12.9394 61.3241 12.6271C61.2412 12.3148 61.1031 12.0433 60.9236 11.7989C60.744 11.5545 60.523 11.3644 60.2744 11.215C60.0119 11.0657 59.7081 10.9978 59.3766 10.9978C58.686 10.9978 58.1611 11.2286 57.802 11.7038C57.4567 12.179 57.2771 12.8172 57.2771 13.6047C57.2771 13.9849 57.3185 14.3243 57.4152 14.6366C57.5119 14.9489 57.6362 15.2205 57.8296 15.4513C58.0092 15.6821 58.2302 15.8586 58.4926 15.9944C58.755 16.1302 59.0451 16.1981 59.3904 16.1981C59.7771 16.1981 60.081 16.1166 60.3434 15.9672C60.6059 15.8179 60.8131 15.6142 60.9926 15.3834C61.1584 15.139 61.2827 14.8674 61.3517 14.5551C61.4208 14.2293 61.4622 13.917 61.4622 13.5911ZM64.3766 7.08739L66.0341 7.08739L66.0341 8.62168L64.3766 8.62168L64.3766 7.08739ZM64.3766 9.89798L66.0341 9.89798L66.0341 17.2707L64.3766 17.2707L64.3766 9.89798ZM67.512 7.08739L69.1695 7.08739L69.1695 17.2707L67.512 17.2707L67.512 7.08739ZM74.2248 17.4744C73.6309 17.4744 73.0922 17.3793 72.6226 17.1756C72.153 16.972 71.7662 16.714 71.4347 16.3746C71.117 16.0351 70.8684 15.6142 70.7027 15.139C70.5369 14.6638 70.4402 14.1342 70.4402 13.5775C70.4402 13.0209 70.5231 12.5049 70.7027 12.0297C70.8684 11.5545 71.117 11.1471 71.4347 10.7941C71.7524 10.4547 72.153 10.1831 72.6226 9.99303C73.0922 9.80294 73.6309 9.69432 74.2248 9.69432C74.8187 9.69432 75.3574 9.78936 75.827 9.99303C76.2966 10.1831 76.6834 10.4547 77.0149 10.7941C77.3326 11.1336 77.5812 11.5545 77.7469 12.0297C77.9127 12.5049 78.0094 13.0209 78.0094 13.5775C78.0094 14.1478 77.9265 14.6638 77.7469 15.139C77.5674 15.6142 77.3326 16.0215 77.0149 16.3746C76.6972 16.714 76.2966 16.9856 75.827 17.1756C75.3574 17.3657 74.8325 17.4744 74.2248 17.4744ZM74.2248 16.1845C74.5839 16.1845 74.9154 16.103 75.1778 15.9537C75.4541 15.8043 75.6613 15.6006 75.8408 15.3562C76.0204 15.1118 76.1447 14.8267 76.2276 14.528C76.3105 14.2157 76.3519 13.9034 76.3519 13.5775C76.3519 13.2653 76.3105 12.953 76.2276 12.6407C76.1447 12.3284 76.0204 12.0568 75.8408 11.8124C75.6613 11.568 75.4403 11.378 75.1778 11.2286C74.9016 11.0792 74.5839 10.9978 74.2248 10.9978C73.8657 10.9978 73.5342 11.0792 73.2718 11.2286C72.9955 11.378 72.7883 11.5816 72.6088 11.8124C72.4292 12.0568 72.3049 12.3284 72.222 12.6407C72.1391 12.953 72.0977 13.2653 72.0977 13.5775C72.0977 13.9034 72.1391 14.2157 72.222 14.528C72.3049 14.8403 72.4292 15.1118 72.6088 15.3562C72.7883 15.6006 73.0093 15.8043 73.2718 15.9537C73.548 16.1166 73.8657 16.1845 74.2248 16.1845ZM78.5066 9.89798L79.7635 9.89798L79.7635 7.67123L81.421 7.67123L81.421 9.8844L82.9127 9.8844L82.9127 11.0928L81.421 11.0928L81.421 15.0304C81.421 15.2069 81.4348 15.3427 81.4486 15.4784C81.4624 15.6006 81.5039 15.7093 81.5453 15.7907C81.6006 15.8722 81.6834 15.9401 81.7801 15.9808C81.8906 16.0215 82.0287 16.0487 82.2221 16.0487C82.3326 16.0487 82.4569 16.0487 82.5674 16.0351C82.6779 16.0215 82.8022 16.008 82.9127 15.9808L82.9127 17.2435C82.7332 17.2707 82.5536 17.2843 82.3741 17.2978C82.1945 17.325 82.0287 17.325 81.8354 17.325C81.3934 17.325 81.0481 17.2843 80.7856 17.2028C80.5232 17.1213 80.316 16.9991 80.1641 16.8498C80.0121 16.6868 79.9155 16.4968 79.8602 16.2659C79.805 16.0351 79.7773 15.75 79.7635 15.4513L79.7635 11.1064L78.5066 11.1064L78.5066 9.87083L78.5066 9.89798Z" fill="white"/>
<path d="M19.8868 7.08758L12.3039 7.08758L9.96959 -1.72776e-06L7.62151 7.08758L0.0385755 7.074L6.17122 11.4596L3.82314 18.5472L9.95578 14.1616L16.0884 18.5472L13.7542 11.4596L19.8868 7.08758Z" fill="#00B67A"/>
<path d="M14.2794 13.0616L13.7545 11.4595L9.96973 14.1614L14.2794 13.0616Z" fill="#005128"/>
</g>
<defs>
<clipPath id="clip0_601_1708">
<rect width="83.75" height="-20" fill="white" transform="matrix(1 0 0 -1 0 0)"/>
</clipPath>
</defs>
</svg>
